<svg width="331px" height="240px"
 viewBox="0.00 0.00 330.80 240.00" xmlns="http://www.w3.org/2000/svg" xmlns:xlink="http://www.w3.org/1999/xlink">
<g id="graph0" class="graph" transform="scale(1.0 1.0) rotate(0) translate(4 236)">
<title>levels</title>
<polygon fill="#ffffff" stroke="transparent" points="-4,4 -4,-236 326.8011,-236 326.8011,4 -4,4"/>
<g id="clust1" class="cluster">
<title>cluster_A</title>
<polygon fill="none" stroke="#000000" points="8,-8 8,-224 314.8011,-224 314.8011,-8 8,-8"/>
<text text-anchor="middle" x="161.4005" y="-208.8" font-family="Times,serif" font-size="14.00" fill="#000000">A</text>
<text text-anchor="middle" x="161.4005" y="-193.8" font-family="Times,serif" font-size="14.00" fill="#000000">BEFORE_EXECUTION</text>
</g>
<g id="clust2" class="cluster">
<title>cluster_B</title>
<polygon fill="none" stroke="#000000" points="16,-16 16,-178 306.8011,-178 306.8011,-16 16,-16"/>
<text text-anchor="middle" x="161.4005" y="-162.8" font-family="Times,serif" font-size="14.00" fill="#000000">B</text>
<text text-anchor="middle" x="161.4005" y="-147.8" font-family="Times,serif" font-size="14.00" fill="#000000">BEFORE_EXECUTION</text>
</g>
<g id="clust3" class="cluster">
<title>cluster_C</title>
<polygon fill="none" stroke="#000000" points="24,-24 24,-132 298.8011,-132 298.8011,-24 24,-24"/>
<text text-anchor="middle" x="161.4005" y="-116.8" font-family="Times,serif" font-size="14.00" fill="#000000">C</text>
<text text-anchor="middle" x="161.4005" y="-101.8" font-family="Times,serif" font-size="14.00" fill="#000000">BEFORE_EXECUTION</text>
</g>
<!-- D -->
<g id="node1" class="node">
<title>D</title>
<ellipse fill="none" stroke="#000000" cx="161.4005" cy="-59" rx="129.3012" ry="26.7407"/>
<text text-anchor="middle" x="161.4005" y="-62.8" font-family="Times,serif" font-size="14.00" fill="#000000">D</text>
<text text-anchor="middle" x="161.4005" y="-47.8" font-family="Times,serif" font-size="14.00" fill="#000000">BEFORE_EXECUTION</text>
</g>
</g>
</svg>
