<svg width="1167px" height="500px"
 viewBox="0.00 0.00 1167.20 499.87" xmlns="http://www.w3.org/2000/svg" xmlns:xlink="http://www.w3.org/1999/xlink">
<g id="graph0" class="graph" transform="scale(1.0 1.0) rotate(0) translate(4 495.8701)">
<title>mixed</title>
<polygon fill="#ffffff" stroke="transparent" points="-4,4 -4,-495.8701 1163.2043,-495.8701 1163.2043,4 -4,4"/>
<g id="clust1" class="cluster">
<title>cluster_A</title>
<polygon fill="none" stroke="#000000" points="8,-303.8701 8,-483.8701 577.6022,-483.8701 577.6022,-303.8701 8,-303.8701"/>
<text text-anchor="middle" x="292.8011" y="-468.6701" font-family="Times,serif" font-size="14.00" fill="#000000">A</text>
<text text-anchor="middle" x="292.8011" y="-453.6701" font-family="Times,serif" font-size="14.00" fill="#000000">BEFORE_EXECUTION</text>
</g>
<g id="clust2" class="cluster">
<title>cluster_B</title>
<polygon fill="none" stroke="#000000" points="302.8011,-61.8701 302.8011,-295.8701 872.4032,-295.8701 872.4032,-61.8701 302.8011,-61.8701"/>
<text text-anchor="middle" x="587.6022" y="-280.6701" font-family="Times,serif" font-size="14.00" fill="#000000">B</text>
<text text-anchor="middle" x="587.6022" y="-265.6701" font-family="Times,serif" font-size="14.00" fill="#000000">BEFORE_EXECUTION</text>
</g>
<!-- D -->
<g id="node1" class="node">
<title>D</title>
<ellipse fill="none" stroke="#000000" cx="1029.8038" cy="-60.8701" rx="129.3012" ry="26.7407"/>
<text text-anchor="middle" x="1029.8038" y="-64.6701" font-family="Times,serif" font-size="14.00" fill="#000000">D</text>
<text text-anchor="middle" x="1029.8038" y="-49.6701" font-family="Times,serif" font-size="14.00" fill="#000000">BEFORE_EXECUTION</text>
</g>
<!-- C -->
<g id="node2" class="node">
<title>C</title>
<ellipse fill="none" stroke="#000000" cx="735.0027" cy="-26.8701" rx="129.3012" ry="26.7407"/>
<text text-anchor="middle" x="735.0027" y="-30.6701" font-family="Times,serif" font-size="14.00" fill="#000000">C</text>
<text text-anchor="middle" x="735.0027" y="-15.6701" font-family="Times,serif" font-size="14.00" fill="#000000">BEFORE_EXECUTION</text>
</g>
<!-- C&#45;&gt;D -->
<g id="edge1" class="edge">
<title>C&#45;&gt;D</title>
<path fill="none" stroke="#000000" d="M848.1374,-39.9181C867.2189,-42.1188 887.1114,-44.4131 906.4374,-46.642"/>
<polygon fill="#000000" stroke="#000000" points="906.1496,-50.1319 916.4848,-47.8007 906.9516,-43.178 906.1496,-50.1319"/>
</g>
<!-- __B__ -->
<!-- __B__&#45;&gt;C -->
<g id="edge5" class="edge">
<title>__B__&#45;&gt;C</title>
<path fill="none" stroke="#000000" d="M565.8469,-61.8716C588.3099,-57.2236 611.4621,-52.433 633.1546,-47.9444"/>
<polygon fill="#000000" stroke="#000000" points="634.1576,-51.3111 643.241,-45.8573 632.7392,-44.4563 634.1576,-51.3111"/>
</g>
<!-- A1 -->
<g id="node4" class="node">
<title>A1</title>
<ellipse fill="none" stroke="#000000" cx="145.4005" cy="-401.8701" rx="129.3012" ry="26.7407"/>
<text text-anchor="middle" x="145.4005" y="-405.6701" font-family="Times,serif" font-size="14.00" fill="#000000">A1</text>
<text text-anchor="middle" x="145.4005" y="-390.6701" font-family="Times,serif" font-size="14.00" fill="#000000">BEFORE_EXECUTION</text>
</g>
<!-- A2 -->
<g id="node5" class="node">
<title>A2</title>
<ellipse fill="none" stroke="#000000" cx="440.2016" cy="-338.8701" rx="129.3012" ry="26.7407"/>
<text text-anchor="middle" x="440.2016" y="-342.6701" font-family="Times,serif" font-size="14.00" fill="#000000">A2</text>
<text text-anchor="middle" x="440.2016" y="-327.6701" font-family="Times,serif" font-size="14.00" fill="#000000">BEFORE_EXECUTION</text>
</g>
<!-- A1&#45;&gt;A2 -->
<g id="edge3" class="edge">
<title>A1&#45;&gt;A2</title>
<path fill="none" stroke="#000000" d="M235.854,-382.5398C268.8202,-375.4948 306.2772,-367.4902 340.0374,-360.2755"/>
<polygon fill="#000000" stroke="#000000" points="340.8715,-363.6764 349.9192,-358.1637 339.4085,-356.8309 340.8715,-363.6764"/>
</g>
<!-- A3 -->
<g id="node6" class="node">
<title>A3</title>
<ellipse fill="none" stroke="#000000" cx="440.2016" cy="-410.8701" rx="129.3012" ry="26.7407"/>
<text text-anchor="middle" x="440.2016" y="-414.6701" font-family="Times,serif" font-size="14.00" fill="#000000">A3</text>
<text text-anchor="middle" x="440.2016" y="-399.6701" font-family="Times,serif" font-size="14.00" fill="#000000">BEFORE_EXECUTION</text>
</g>
<!-- A1&#45;&gt;A3 -->
<g id="edge2" class="edge">
<title>A1&#45;&gt;A3</title>
<path fill="none" stroke="#000000" d="M273.847,-405.7914C283.0767,-406.0732 292.4072,-406.358 301.6905,-406.6414"/>
<polygon fill="#000000" stroke="#000000" points="301.6362,-410.1413 311.7384,-406.9482 301.8499,-403.1446 301.6362,-410.1413"/>
</g>
<!-- __A__ -->
<!-- __A__&#45;&gt;__B__ -->
<g id="edge4" class="edge">
<title>__A__&#45;&gt;__B__</title>
<path fill="none" stroke="#000000" d="M156.557,-303.8724C176.948,-259.5734 224.6313,-169.5208 294.1536,-120.6579"/>
<polygon fill="#000000" stroke="#000000" points="296.4375,-123.3409 302.8011,-114.8701 292.5439,-117.5237 296.4375,-123.3409"/>
</g>
<!-- B2 -->
<g id="node8" class="node">
<title>B2</title>
<ellipse fill="none" stroke="#000000" cx="440.2016" cy="-150.8701" rx="129.3012" ry="26.7407"/>
<text text-anchor="middle" x="440.2016" y="-154.6701" font-family="Times,serif" font-size="14.00" fill="#000000">B2</text>
<text text-anchor="middle" x="440.2016" y="-139.6701" font-family="Times,serif" font-size="14.00" fill="#000000">BEFORE_EXECUTION</text>
</g>
<!-- B2&#45;&gt;D -->
<g id="edge7" class="edge">
<title>B2&#45;&gt;D</title>
<path fill="none" stroke="#000000" d="M544.5922,-134.9353C648.6725,-119.048 808.0986,-94.7123 915.5244,-78.3143"/>
<polygon fill="#000000" stroke="#000000" points="916.0728,-81.7712 925.4301,-76.8022 915.0165,-74.8513 916.0728,-81.7712"/>
</g>
<!-- B3 -->
<g id="node9" class="node">
<title>B3</title>
<ellipse fill="none" stroke="#000000" cx="735.0027" cy="-181.8701" rx="129.3012" ry="26.7407"/>
<text text-anchor="middle" x="735.0027" y="-185.6701" font-family="Times,serif" font-size="14.00" fill="#000000">B3</text>
<text text-anchor="middle" x="735.0027" y="-170.6701" font-family="Times,serif" font-size="14.00" fill="#000000">BEFORE_EXECUTION</text>
</g>
<!-- B2&#45;&gt;B3 -->
<g id="edge6" class="edge">
<title>B2&#45;&gt;B3</title>
<path fill="none" stroke="#000000" d="M555.8687,-163.0331C573.2636,-164.8623 591.2775,-166.7565 608.878,-168.6073"/>
<polygon fill="#000000" stroke="#000000" points="608.8741,-172.1261 619.1853,-169.6912 609.6062,-165.1645 608.8741,-172.1261"/>
</g>
<!-- B1 -->
<g id="node10" class="node">
<title>B1</title>
<ellipse fill="none" stroke="#000000" cx="440.2016" cy="-222.8701" rx="129.3012" ry="26.7407"/>
<text text-anchor="middle" x="440.2016" y="-226.6701" font-family="Times,serif" font-size="14.00" fill="#000000">B1</text>
<text text-anchor="middle" x="440.2016" y="-211.6701" font-family="Times,serif" font-size="14.00" fill="#000000">BEFORE_EXECUTION</text>
</g>
<!-- B1&#45;&gt;B3 -->
<g id="edge8" class="edge">
<title>B1&#45;&gt;B3</title>
<path fill="none" stroke="#000000" d="M547.883,-207.8941C570.3776,-204.7656 594.2058,-201.4516 617.0503,-198.2745"/>
<polygon fill="#000000" stroke="#000000" points="617.6974,-201.7183 627.1199,-196.8741 616.7331,-194.785 617.6974,-201.7183"/>
</g>
</g>
</svg>
