<svg width="510px" height="194px"
 viewBox="0.00 0.00 509.88 194.00" xmlns="http://www.w3.org/2000/svg" xmlns:xlink="http://www.w3.org/1999/xlink">
<g id="graph0" class="graph" transform="scale(1.0 1.0) rotate(0) translate(4 190)">
<title>TMP_00</title>
<polygon fill="white" stroke="transparent" points="-4,4 -4,-190 505.88,-190 505.88,4 -4,4"/>
<g id="clust1" class="cluster">
<title>cluster_initializationTask</title>
<polygon fill="none" stroke="black" points="8,-8 8,-178 272.02,-178 272.02,-8 8,-8"/>
<text text-anchor="middle" x="140.01" y="-161.4" font-family="Times,serif" font-size="14.00">initializationTask</text>
<text text-anchor="middle" x="140.01" y="-144.6" font-family="Times,serif" font-size="14.00">WAIT</text>
</g>
<!-- AquiletourMainServer -->
<g id="node1" class="node">
<title>AquiletourMainServer</title>
<ellipse fill="none" stroke="black" cx="400.95" cy="-34" rx="100.86" ry="29.33"/>
<text text-anchor="middle" x="400.95" y="-38.2" font-family="Times,serif" font-size="14.00">AquiletourMainServer</text>
<text text-anchor="middle" x="400.95" y="-21.4" font-family="Times,serif" font-size="14.00">WAIT</text>
</g>
<!-- initializationTask_InitializationTaskWebserver -->
<g id="node2" class="node">
<title>initializationTask_InitializationTaskWebserver</title>
<ellipse fill="none" stroke="black" cx="140.01" cy="-99" rx="124.02" ry="29.33"/>
<text text-anchor="middle" x="140.01" y="-103.2" font-family="Times,serif" font-size="14.00">InitializationTaskWebserver</text>
<text text-anchor="middle" x="140.01" y="-86.4" font-family="Times,serif" font-size="14.00">WAIT</text>
</g>
<!-- __initializationTask__ -->
<!-- __initializationTask__&#45;&gt;AquiletourMainServer -->
<g id="edge1" class="edge">
<title>__initializationTask__&#45;&gt;AquiletourMainServer</title>
<path fill="none" stroke="black" d="M272.01,-34C277.88,-34 283.74,-34 289.56,-34"/>
<polygon fill="black" stroke="black" points="289.73,-37.5 299.73,-34 289.73,-30.5 289.73,-37.5"/>
</g>
</g>
</svg>
