<svg width="617px" height="186px"
 viewBox="0.00 0.00 617.20 186.00" xmlns="http://www.w3.org/2000/svg" xmlns:xlink="http://www.w3.org/1999/xlink">
<g id="graph0" class="graph" transform="scale(1.0 1.0) rotate(0) translate(4 182)">
<title>TMP_03</title>
<polygon fill="#ffffff" stroke="transparent" points="-4,4 -4,-182 613.2001,-182 613.2001,4 -4,4"/>
<g id="clust1" class="cluster">
<title>cluster_initializationTask</title>
<polygon fill="none" stroke="#000000" points="8,-8 8,-170 332.2986,-170 332.2986,-8 8,-8"/>
<text text-anchor="middle" x="170.1493" y="-154.8" font-family="Times,serif" font-size="14.00" fill="#000000">initializationTask</text>
<text text-anchor="middle" x="170.1493" y="-139.8" font-family="Times,serif" font-size="14.00" fill="#000000">DONE</text>
</g>
<!-- AquiletourMainServer -->
<g id="node1" class="node">
<title>AquiletourMainServer</title>
<ellipse fill="none" stroke="#000000" cx="484.7494" cy="-34" rx="124.4016" ry="26.7407"/>
<text text-anchor="middle" x="484.7494" y="-37.8" font-family="Times,serif" font-size="14.00" fill="#000000">AquiletourMainServer</text>
<text text-anchor="middle" x="484.7494" y="-22.8" font-family="Times,serif" font-size="14.00" fill="#000000">DONE</text>
</g>
<!-- initializationTask_InitializationTaskWebserver -->
<g id="node2" class="node">
<title>initializationTask_InitializationTaskWebserver</title>
<ellipse fill="none" stroke="#000000" cx="170.1493" cy="-97" rx="154.2987" ry="26.7407"/>
<text text-anchor="middle" x="170.1493" y="-100.8" font-family="Times,serif" font-size="14.00" fill="#000000">InitializationTaskWebserver</text>
<text text-anchor="middle" x="170.1493" y="-85.8" font-family="Times,serif" font-size="14.00" fill="#000000">DONE</text>
</g>
<!-- __initializationTask__ -->
<!-- __initializationTask__&#45;&gt;AquiletourMainServer -->
<g id="edge1" class="edge">
<title>__initializationTask__&#45;&gt;AquiletourMainServer</title>
<path fill="none" stroke="#000000" d="M332.2943,-34C338.1488,-34 343.9944,-34 349.7986,-34"/>
<polygon fill="#000000" stroke="#000000" points="350.0484,-37.5001 360.0484,-34 350.0483,-30.5001 350.0484,-37.5001"/>
</g>
</g>
</svg>
